<?xml version="1.0" encoding="utf-8" standalone="no"?>
<!DOCTYPE svg PUBLIC "-//W3C//DTD SVG 1.1//EN"
  "http://www.w3.org/Graphics/SVG/1.1/DTD/svg11.dtd">
<svg xmlns:xlink="http://www.w3.org/1999/xlink" width="460.8pt" height="345.6pt" viewBox="0 0 460.8 345.6" xmlns="http://www.w3.org/2000/svg" version="1.1">
 <metadata>
  <rdf:RDF xmlns:dc="http://purl.org/dc/elements/1.1/" xmlns:cc="http://creativecommons.org/ns#" xmlns:rdf="http://www.w3.org/1999/02/22-rdf-syntax-ns#">
   <cc:Work>
    <dc:type rdf:resource="http://purl.org/dc/dcmitype/StillImage"/>
    <dc:date>2023-02-11T22:54:44.501021</dc:date>
    <dc:format>image/svg+xml</dc:format>
    <dc:creator>
     <cc:Agent>
      <dc:title>Matplotlib v3.6.2, https://matplotlib.org/</dc:title>
     </cc:Agent>
    </dc:creator>
   </cc:Work>
  </rdf:RDF>
 </metadata>
 <defs>
  <style type="text/css">*{stroke-linejoin: round; stroke-linecap: butt}</style>
 </defs>
 <g id="figure_1">
  <g id="patch_1">
   <path d="M 0 345.6 
L 460.8 345.6 
L 460.8 0 
L 0 0 
L 0 345.6 
z
" style="fill: none"/>
  </g>
  <g id="axes_1">
   <g id="patch_2">
    <path d="M 24.57 291.232 
L 450 291.232 
L 450 10.8 
L 24.57 10.8 
L 24.57 291.232 
z
" style="fill: none"/>
   </g>
   <g id="matplotlib.axis_1">
    <g id="xtick_1">
     <g id="line2d_1">
      <defs>
       <path id="m30ef092b25" d="M 0 0 
L 0 3.5 
" style="stroke: #000000; stroke-width: 0.8"/>
      </defs>
      <g>
       <use xlink:href="#m30ef092b25" x="394.50913" y="291.232" style="stroke: #000000; stroke-width: 0.8"/>
      </g>
     </g>
     <g id="text_1">
      <!-- −130 -->
      <g transform="translate(380.775537 305.830437) scale(0.1 -0.1)">
       <defs>
        <path id="DejaVuSans-2212" d="M 678 2272 
L 4684 2272 
L 4684 1741 
L 678 1741 
L 678 2272 
z
" transform="scale(0.015625)"/>
        <path id="DejaVuSans-31" d="M 794 531 
L 1825 531 
L 1825 4091 
L 703 3866 
L 703 4441 
L 1819 4666 
L 2450 4666 
L 2450 531 
L 3481 531 
L 3481 0 
L 794 0 
L 794 531 
z
" transform="scale(0.015625)"/>
        <path id="DejaVuSans-33" d="M 2597 2516 
Q 3050 2419 3304 2112 
Q 3559 1806 3559 1356 
Q 3559 666 3084 287 
Q 2609 -91 1734 -91 
Q 1441 -91 1130 -33 
Q 819 25 488 141 
L 488 750 
Q 750 597 1062 519 
Q 1375 441 1716 441 
Q 2309 441 2620 675 
Q 2931 909 2931 1356 
Q 2931 1769 2642 2001 
Q 2353 2234 1838 2234 
L 1294 2234 
L 1294 2753 
L 1863 2753 
Q 2328 2753 2575 2939 
Q 2822 3125 2822 3475 
Q 2822 3834 2567 4026 
Q 2313 4219 1838 4219 
Q 1578 4219 1281 4162 
Q 984 4106 628 3988 
L 628 4550 
Q 988 4650 1302 4700 
Q 1616 4750 1894 4750 
Q 2613 4750 3031 4423 
Q 3450 4097 3450 3541 
Q 3450 3153 3228 2886 
Q 3006 2619 2597 2516 
z
" transform="scale(0.015625)"/>
        <path id="DejaVuSans-30" d="M 2034 4250 
Q 1547 4250 1301 3770 
Q 1056 3291 1056 2328 
Q 1056 1369 1301 889 
Q 1547 409 2034 409 
Q 2525 409 2770 889 
Q 3016 1369 3016 2328 
Q 3016 3291 2770 3770 
Q 2525 4250 2034 4250 
z
M 2034 4750 
Q 2819 4750 3233 4129 
Q 3647 3509 3647 2328 
Q 3647 1150 3233 529 
Q 2819 -91 2034 -91 
Q 1250 -91 836 529 
Q 422 1150 422 2328 
Q 422 3509 836 4129 
Q 1250 4750 2034 4750 
z
" transform="scale(0.015625)"/>
       </defs>
       <use xlink:href="#DejaVuSans-2212"/>
       <use xlink:href="#DejaVuSans-31" x="83.789062"/>
       <use xlink:href="#DejaVuSans-33" x="147.412109"/>
       <use xlink:href="#DejaVuSans-30" x="211.035156"/>
      </g>
     </g>
    </g>
    <g id="xtick_2">
     <g id="line2d_2">
      <g>
       <use xlink:href="#m30ef092b25" x="320.521304" y="291.232" style="stroke: #000000; stroke-width: 0.8"/>
      </g>
     </g>
     <g id="text_2">
      <!-- −128 -->
      <g transform="translate(306.787711 305.830437) scale(0.1 -0.1)">
       <defs>
        <path id="DejaVuSans-32" d="M 1228 531 
L 3431 531 
L 3431 0 
L 469 0 
L 469 531 
Q 828 903 1448 1529 
Q 2069 2156 2228 2338 
Q 2531 2678 2651 2914 
Q 2772 3150 2772 3378 
Q 2772 3750 2511 3984 
Q 2250 4219 1831 4219 
Q 1534 4219 1204 4116 
Q 875 4013 500 3803 
L 500 4441 
Q 881 4594 1212 4672 
Q 1544 4750 1819 4750 
Q 2544 4750 2975 4387 
Q 3406 4025 3406 3419 
Q 3406 3131 3298 2873 
Q 3191 2616 2906 2266 
Q 2828 2175 2409 1742 
Q 1991 1309 1228 531 
z
" transform="scale(0.015625)"/>
        <path id="DejaVuSans-38" d="M 2034 2216 
Q 1584 2216 1326 1975 
Q 1069 1734 1069 1313 
Q 1069 891 1326 650 
Q 1584 409 2034 409 
Q 2484 409 2743 651 
Q 3003 894 3003 1313 
Q 3003 1734 2745 1975 
Q 2488 2216 2034 2216 
z
M 1403 2484 
Q 997 2584 770 2862 
Q 544 3141 544 3541 
Q 544 4100 942 4425 
Q 1341 4750 2034 4750 
Q 2731 4750 3128 4425 
Q 3525 4100 3525 3541 
Q 3525 3141 3298 2862 
Q 3072 2584 2669 2484 
Q 3125 2378 3379 2068 
Q 3634 1759 3634 1313 
Q 3634 634 3220 271 
Q 2806 -91 2034 -91 
Q 1263 -91 848 271 
Q 434 634 434 1313 
Q 434 1759 690 2068 
Q 947 2378 1403 2484 
z
M 1172 3481 
Q 1172 3119 1398 2916 
Q 1625 2713 2034 2713 
Q 2441 2713 2670 2916 
Q 2900 3119 2900 3481 
Q 2900 3844 2670 4047 
Q 2441 4250 2034 4250 
Q 1625 4250 1398 4047 
Q 1172 3844 1172 3481 
z
" transform="scale(0.015625)"/>
       </defs>
       <use xlink:href="#DejaVuSans-2212"/>
       <use xlink:href="#DejaVuSans-31" x="83.789062"/>
       <use xlink:href="#DejaVuSans-32" x="147.412109"/>
       <use xlink:href="#DejaVuSans-38" x="211.035156"/>
      </g>
     </g>
    </g>
    <g id="xtick_3">
     <g id="line2d_3">
      <g>
       <use xlink:href="#m30ef092b25" x="246.533478" y="291.232" style="stroke: #000000; stroke-width: 0.8"/>
      </g>
     </g>
     <g id="text_3">
      <!-- −126 -->
      <g transform="translate(232.799885 305.830437) scale(0.1 -0.1)">
       <defs>
        <path id="DejaVuSans-36" d="M 2113 2584 
Q 1688 2584 1439 2293 
Q 1191 2003 1191 1497 
Q 1191 994 1439 701 
Q 1688 409 2113 409 
Q 2538 409 2786 701 
Q 3034 994 3034 1497 
Q 3034 2003 2786 2293 
Q 2538 2584 2113 2584 
z
M 3366 4563 
L 3366 3988 
Q 3128 4100 2886 4159 
Q 2644 4219 2406 4219 
Q 1781 4219 1451 3797 
Q 1122 3375 1075 2522 
Q 1259 2794 1537 2939 
Q 1816 3084 2150 3084 
Q 2853 3084 3261 2657 
Q 3669 2231 3669 1497 
Q 3669 778 3244 343 
Q 2819 -91 2113 -91 
Q 1303 -91 875 529 
Q 447 1150 447 2328 
Q 447 3434 972 4092 
Q 1497 4750 2381 4750 
Q 2619 4750 2861 4703 
Q 3103 4656 3366 4563 
z
" transform="scale(0.015625)"/>
       </defs>
       <use xlink:href="#DejaVuSans-2212"/>
       <use xlink:href="#DejaVuSans-31" x="83.789062"/>
       <use xlink:href="#DejaVuSans-32" x="147.412109"/>
       <use xlink:href="#DejaVuSans-36" x="211.035156"/>
      </g>
     </g>
    </g>
    <g id="xtick_4">
     <g id="line2d_4">
      <g>
       <use xlink:href="#m30ef092b25" x="172.545652" y="291.232" style="stroke: #000000; stroke-width: 0.8"/>
      </g>
     </g>
     <g id="text_4">
      <!-- −124 -->
      <g transform="translate(158.812058 305.830437) scale(0.1 -0.1)">
       <defs>
        <path id="DejaVuSans-34" d="M 2419 4116 
L 825 1625 
L 2419 1625 
L 2419 4116 
z
M 2253 4666 
L 3047 4666 
L 3047 1625 
L 3713 1625 
L 3713 1100 
L 3047 1100 
L 3047 0 
L 2419 0 
L 2419 1100 
L 313 1100 
L 313 1709 
L 2253 4666 
z
" transform="scale(0.015625)"/>
       </defs>
       <use xlink:href="#DejaVuSans-2212"/>
       <use xlink:href="#DejaVuSans-31" x="83.789062"/>
       <use xlink:href="#DejaVuSans-32" x="147.412109"/>
       <use xlink:href="#DejaVuSans-34" x="211.035156"/>
      </g>
     </g>
    </g>
    <g id="xtick_5">
     <g id="line2d_5">
      <g>
       <use xlink:href="#m30ef092b25" x="98.557826" y="291.232" style="stroke: #000000; stroke-width: 0.8"/>
      </g>
     </g>
     <g id="text_5">
      <!-- −122 -->
      <g transform="translate(84.824232 305.830437) scale(0.1 -0.1)">
       <use xlink:href="#DejaVuSans-2212"/>
       <use xlink:href="#DejaVuSans-31" x="83.789062"/>
       <use xlink:href="#DejaVuSans-32" x="147.412109"/>
       <use xlink:href="#DejaVuSans-32" x="211.035156"/>
      </g>
     </g>
    </g>
    <g id="xtick_6">
     <g id="line2d_6">
      <g>
       <use xlink:href="#m30ef092b25" x="24.57" y="291.232" style="stroke: #000000; stroke-width: 0.8"/>
      </g>
     </g>
     <g id="text_6">
      <!-- −120 -->
      <g transform="translate(10.836406 305.830437) scale(0.1 -0.1)">
       <use xlink:href="#DejaVuSans-2212"/>
       <use xlink:href="#DejaVuSans-31" x="83.789062"/>
       <use xlink:href="#DejaVuSans-32" x="147.412109"/>
       <use xlink:href="#DejaVuSans-30" x="211.035156"/>
      </g>
     </g>
    </g>
    <g id="text_7">
     <!-- $^{19}$F (ppm) -->
     <g transform="translate(205.185 328.830125) scale(0.12 -0.12)">
      <defs>
       <path id="DejaVuSans-39" d="M 703 97 
L 703 672 
Q 941 559 1184 500 
Q 1428 441 1663 441 
Q 2288 441 2617 861 
Q 2947 1281 2994 2138 
Q 2813 1869 2534 1725 
Q 2256 1581 1919 1581 
Q 1219 1581 811 2004 
Q 403 2428 403 3163 
Q 403 3881 828 4315 
Q 1253 4750 1959 4750 
Q 2769 4750 3195 4129 
Q 3622 3509 3622 2328 
Q 3622 1225 3098 567 
Q 2575 -91 1691 -91 
Q 1453 -91 1209 -44 
Q 966 3 703 97 
z
M 1959 2075 
Q 2384 2075 2632 2365 
Q 2881 2656 2881 3163 
Q 2881 3666 2632 3958 
Q 2384 4250 1959 4250 
Q 1534 4250 1286 3958 
Q 1038 3666 1038 3163 
Q 1038 2656 1286 2365 
Q 1534 2075 1959 2075 
z
" transform="scale(0.015625)"/>
       <path id="DejaVuSans-Bold-46" d="M 588 4666 
L 3834 4666 
L 3834 3756 
L 1791 3756 
L 1791 2888 
L 3713 2888 
L 3713 1978 
L 1791 1978 
L 1791 0 
L 588 0 
L 588 4666 
z
" transform="scale(0.015625)"/>
       <path id="DejaVuSans-Bold-20" transform="scale(0.015625)"/>
       <path id="DejaVuSans-Bold-28" d="M 2413 -844 
L 1484 -844 
Q 1006 -72 778 623 
Q 550 1319 550 2003 
Q 550 2688 779 3389 
Q 1009 4091 1484 4856 
L 2413 4856 
Q 2013 4116 1813 3408 
Q 1613 2700 1613 2009 
Q 1613 1319 1811 609 
Q 2009 -100 2413 -844 
z
" transform="scale(0.015625)"/>
       <path id="DejaVuSans-Bold-70" d="M 1656 506 
L 1656 -1331 
L 538 -1331 
L 538 3500 
L 1656 3500 
L 1656 2988 
Q 1888 3294 2169 3439 
Q 2450 3584 2816 3584 
Q 3463 3584 3878 3070 
Q 4294 2556 4294 1747 
Q 4294 938 3878 423 
Q 3463 -91 2816 -91 
Q 2450 -91 2169 54 
Q 1888 200 1656 506 
z
M 2400 2772 
Q 2041 2772 1848 2508 
Q 1656 2244 1656 1747 
Q 1656 1250 1848 986 
Q 2041 722 2400 722 
Q 2759 722 2948 984 
Q 3138 1247 3138 1747 
Q 3138 2247 2948 2509 
Q 2759 2772 2400 2772 
z
" transform="scale(0.015625)"/>
       <path id="DejaVuSans-Bold-6d" d="M 3781 2919 
Q 3994 3244 4286 3414 
Q 4578 3584 4928 3584 
Q 5531 3584 5847 3212 
Q 6163 2841 6163 2131 
L 6163 0 
L 5038 0 
L 5038 1825 
Q 5041 1866 5042 1909 
Q 5044 1953 5044 2034 
Q 5044 2406 4934 2573 
Q 4825 2741 4581 2741 
Q 4263 2741 4089 2478 
Q 3916 2216 3909 1719 
L 3909 0 
L 2784 0 
L 2784 1825 
Q 2784 2406 2684 2573 
Q 2584 2741 2328 2741 
Q 2006 2741 1831 2477 
Q 1656 2213 1656 1722 
L 1656 0 
L 531 0 
L 531 3500 
L 1656 3500 
L 1656 2988 
Q 1863 3284 2130 3434 
Q 2397 3584 2719 3584 
Q 3081 3584 3359 3409 
Q 3638 3234 3781 2919 
z
" transform="scale(0.015625)"/>
       <path id="DejaVuSans-Bold-29" d="M 513 -844 
Q 913 -100 1113 609 
Q 1313 1319 1313 2009 
Q 1313 2700 1113 3408 
Q 913 4116 513 4856 
L 1441 4856 
Q 1916 4091 2145 3389 
Q 2375 2688 2375 2003 
Q 2375 1319 2147 623 
Q 1919 -72 1441 -844 
L 513 -844 
z
" transform="scale(0.015625)"/>
      </defs>
      <use xlink:href="#DejaVuSans-31" transform="translate(0.957031 39.046875) scale(0.7)"/>
      <use xlink:href="#DejaVuSans-39" transform="translate(45.493164 39.046875) scale(0.7)"/>
      <use xlink:href="#DejaVuSans-Bold-46" transform="translate(92.763672 0.765625)"/>
      <use xlink:href="#DejaVuSans-Bold-20" transform="translate(161.074219 0.765625)"/>
      <use xlink:href="#DejaVuSans-Bold-28" transform="translate(195.888672 0.765625)"/>
      <use xlink:href="#DejaVuSans-Bold-70" transform="translate(241.591797 0.765625)"/>
      <use xlink:href="#DejaVuSans-Bold-70" transform="translate(313.173828 0.765625)"/>
      <use xlink:href="#DejaVuSans-Bold-6d" transform="translate(384.755859 0.765625)"/>
      <use xlink:href="#DejaVuSans-Bold-29" transform="translate(488.955078 0.765625)"/>
     </g>
    </g>
   </g>
   <g id="matplotlib.axis_2"/>
   <g id="line2d_7">
    <path d="M -1 271.086466 
L -0.893005 270.85436 
L -0.665786 273.046177 
L -0.552177 272.536999 
L -0.438568 271.042947 
L -0.324959 271.680827 
L -0.09774 274.654379 
L 0.129478 275.160503 
L 0.356697 274.287521 
L 0.470306 274.666997 
L 0.697525 275.927921 
L 0.924743 275.377048 
L 1.038352 275.570211 
L 1.720008 271.122898 
L 1.833617 271.451134 
L 2.060836 273.01386 
L 2.174445 272.470796 
L 2.401664 270.536519 
L 2.742491 271.133444 
L 2.96971 273.604926 
L 3.083319 273.56274 
L 3.537756 270.682034 
L 3.651365 270.84591 
L 4.105802 274.27019 
L 4.44663 272.553711 
L 4.560239 272.561802 
L 4.673849 272.081001 
L 4.787458 272.783922 
L 4.901067 274.348028 
L 5.014676 274.266001 
L 5.128286 273.751712 
L 5.355504 275.014305 
L 5.582723 272.773901 
L 5.696332 272.638847 
L 5.923551 273.40447 
L 6.150769 271.318758 
L 6.491597 273.400335 
L 6.832425 269.165374 
L 7.059643 270.355193 
L 7.173252 271.388842 
L 7.286862 270.967249 
L 7.51408 269.512182 
L 7.627689 269.561006 
L 7.854908 268.689559 
L 8.082126 270.02733 
L 8.422954 272.437687 
L 8.536564 272.201898 
L 8.650173 272.337867 
L 8.763782 271.941938 
L 9.331828 267.178976 
L 9.559047 263.523495 
L 9.672656 263.556787 
L 9.899875 267.620917 
L 10.240702 273.640468 
L 10.354312 274.066028 
L 10.467921 273.582492 
L 10.58153 273.87123 
L 10.808749 273.342226 
L 11.149576 274.65242 
L 11.376795 273.526178 
L 11.604014 277.240396 
L 11.717623 277.194363 
L 11.944841 275.464122 
L 12.17206 273.348948 
L 12.285669 272.728625 
L 12.512888 270.479271 
L 12.740106 272.813126 
L 12.853715 272.164431 
L 13.080934 269.139979 
L 13.194543 269.236349 
L 13.535371 274.639468 
L 14.103417 270.990281 
L 14.217026 270.818974 
L 14.785073 275.341857 
L 15.012291 274.787368 
L 15.125901 275.052525 
L 15.23951 274.947034 
L 15.580338 272.137765 
L 16.034775 274.251046 
L 16.261993 270.728421 
L 16.375602 269.419899 
L 16.489212 269.745952 
L 16.943649 275.341118 
L 17.284476 272.643325 
L 17.398086 272.890699 
L 17.738914 274.510715 
L 18.079741 273.34968 
L 18.193351 273.197589 
L 18.30696 272.598899 
L 18.420569 272.639066 
L 18.875006 275.496781 
L 18.988615 275.666173 
L 19.215834 271.970332 
L 19.329443 272.479254 
L 19.556662 274.441165 
L 20.124708 272.479438 
L 20.351926 273.08103 
L 20.465536 273.002028 
L 20.692754 274.4294 
L 20.919973 273.777183 
L 21.033582 273.609175 
L 21.260801 272.843032 
L 21.37441 272.725152 
L 21.488019 272.81125 
L 21.828847 274.941753 
L 21.942456 274.582616 
L 22.283284 269.537672 
L 22.624112 272.685926 
L 22.737721 272.17264 
L 22.85133 272.18015 
L 23.078549 272.621583 
L 23.192158 272.733941 
L 23.419376 274.398855 
L 23.532986 274.301301 
L 23.760204 271.723593 
L 23.873814 270.665543 
L 23.987423 271.198418 
L 24.214641 273.630039 
L 24.555469 270.583999 
L 24.782688 271.514123 
L 25.123515 272.924725 
L 25.237125 273.005977 
L 25.577952 271.124866 
L 25.691562 270.962199 
L 25.91878 269.659807 
L 26.145999 271.359155 
L 26.600436 276.157192 
L 26.714045 275.985594 
L 26.941264 274.01891 
L 27.054873 273.976141 
L 27.395701 272.680999 
L 27.50931 273.093246 
L 27.963747 276.147146 
L 28.190965 274.946952 
L 28.418184 271.941568 
L 28.645402 270.428395 
L 28.98623 270.718496 
L 29.099839 270.406334 
L 29.440667 274.814683 
L 29.667886 273.997108 
L 29.781495 273.680138 
L 30.122323 271.675697 
L 30.235932 271.673335 
L 30.803978 273.607126 
L 30.917588 274.256095 
L 31.372025 271.712543 
L 31.485634 272.312228 
L 31.712852 274.913768 
L 32.167289 277.153785 
L 32.280899 277.084044 
L 32.621727 275.925092 
L 32.735336 275.947352 
L 33.076164 274.289778 
L 33.303382 275.493653 
L 33.64421 274.260714 
L 33.871428 272.004727 
L 33.985038 272.570754 
L 34.212256 274.535673 
L 34.439475 274.409796 
L 34.553084 274.574802 
L 35.12113 272.278072 
L 35.461958 273.07628 
L 35.575567 273.006569 
L 35.802786 272.211035 
L 36.030004 273.367492 
L 36.370832 272.196194 
L 36.598051 273.117822 
L 36.938878 270.433677 
L 37.052488 270.333728 
L 37.279706 271.735208 
L 37.393315 271.527125 
L 37.620534 271.058765 
L 37.734143 271.474179 
L 38.074971 274.888753 
L 38.18858 274.422766 
L 38.302189 274.071197 
L 38.415799 274.133059 
L 38.756627 272.672578 
L 38.870236 271.527852 
L 38.983845 271.619011 
L 39.324673 275.918104 
L 39.438282 276.084193 
L 39.551891 275.355878 
L 39.77911 272.399808 
L 40.006328 273.358792 
L 40.347156 271.553771 
L 40.574375 269.860312 
L 40.687984 270.74405 
L 41.028812 275.552999 
L 41.25603 276.144331 
L 41.369639 275.469 
L 41.596858 272.870611 
L 41.710467 273.089118 
L 41.824077 274.126203 
L 41.937686 274.123572 
L 42.278514 271.564258 
L 42.392123 271.459333 
L 42.619341 271.69033 
L 42.84656 272.898883 
L 43.073778 271.929559 
L 43.187388 271.81749 
L 43.414606 273.022745 
L 43.641825 270.001902 
L 43.869043 267.629498 
L 44.096262 269.733373 
L 44.32348 271.901921 
L 44.664308 273.495125 
L 44.891527 272.650805 
L 45.118745 273.553655 
L 45.232354 273.387264 
L 45.686791 270.557763 
L 45.91401 271.993315 
L 46.027619 271.930638 
L 46.141228 271.953218 
L 46.254838 272.517386 
L 46.368447 272.390603 
L 46.595665 271.865318 
L 46.822884 272.97335 
L 46.936493 272.882533 
L 47.050102 272.99654 
L 47.163712 272.868396 
L 47.504539 270.639533 
L 47.618149 271.153351 
L 47.845367 273.260969 
L 48.072586 273.389325 
L 48.299804 272.905178 
L 48.527023 271.471821 
L 48.754241 271.726299 
L 48.98146 271.235399 
L 49.208678 272.43604 
L 49.549506 269.277352 
L 49.663115 269.271893 
L 49.776725 269.029709 
L 49.890334 268.428249 
L 50.003943 268.582179 
L 50.231162 271.786923 
L 50.344771 271.889559 
L 50.571989 271.303961 
L 51.026427 267.885988 
L 51.253645 270.836678 
L 51.367254 270.432297 
L 51.480864 269.686712 
L 52.04891 273.908393 
L 52.162519 273.384445 
L 52.389738 271.142252 
L 52.503347 271.414337 
L 52.730565 270.166788 
L 52.844175 270.458653 
L 53.185002 273.464233 
L 53.639439 270.588979 
L 53.753049 270.615586 
L 53.980267 269.241803 
L 54.093877 268.548841 
L 54.207486 268.879997 
L 54.775532 272.748996 
L 54.889141 272.686563 
L 55.002751 272.488486 
L 55.11636 272.545322 
L 55.343578 273.987721 
L 55.457188 273.857478 
L 55.798015 271.803746 
L 55.911625 271.807981 
L 56.025234 272.167843 
L 56.366062 275.23428 
L 56.706889 271.843112 
L 56.820499 270.950994 
L 57.047717 268.549328 
L 57.274936 270.917103 
L 57.615764 271.878678 
L 57.729373 271.654273 
L 57.956591 272.083944 
L 58.524638 275.172774 
L 58.638247 274.912364 
L 58.865465 272.828775 
L 58.979075 272.911998 
L 59.092684 273.394409 
L 59.206293 273.180815 
L 59.547121 272.024344 
L 59.66073 272.184592 
L 60.115167 275.921207 
L 60.228777 276.837431 
L 60.569604 272.998113 
L 60.683214 273.074378 
L 60.796823 273.05091 
L 60.910432 273.68386 
L 61.137651 276.173149 
L 61.25126 276.348038 
L 61.364869 275.076218 
L 61.592088 270.813948 
L 61.705697 270.308533 
L 61.819306 270.802464 
L 62.273743 275.081789 
L 62.387352 274.730822 
L 62.614571 273.017218 
L 62.72818 273.28113 
L 63.069008 271.172505 
L 63.409836 274.002506 
L 63.750664 271.592346 
L 63.977882 272.490865 
L 64.091491 271.781687 
L 64.205101 271.943795 
L 64.31871 272.56437 
L 64.545928 271.605131 
L 64.886756 273.43725 
L 65.000365 273.385834 
L 65.227584 274.018927 
L 65.454802 272.970764 
L 65.568412 273.071645 
L 65.79563 273.827866 
L 65.90924 273.727479 
L 66.136458 272.453614 
L 66.250067 272.904736 
L 66.363677 272.77344 
L 66.818114 270.845998 
L 66.931723 270.684234 
L 67.158941 269.737094 
L 67.613378 275.496425 
L 67.726988 274.934232 
L 67.954206 272.213783 
L 68.181425 272.213202 
L 68.408643 271.543523 
L 68.522252 271.944871 
L 68.749471 270.162361 
L 68.86308 270.423823 
L 68.97669 270.461151 
L 69.090299 269.970364 
L 69.203908 270.180029 
L 69.431127 269.271043 
L 69.771954 272.871866 
L 69.885564 272.747372 
L 69.999173 272.870883 
L 70.112782 273.323606 
L 70.340001 271.924657 
L 70.567219 270.995485 
L 70.680828 271.495745 
L 70.908047 270.275493 
L 71.362484 271.655129 
L 71.589702 270.209095 
L 71.816921 271.325879 
L 72.04414 270.404882 
L 72.157749 269.664084 
L 72.271358 270.257606 
L 72.498577 272.170614 
L 72.725795 271.662668 
L 72.839404 271.890356 
L 73.066623 271.883839 
L 73.293841 273.434143 
L 73.748278 269.470884 
L 74.089106 272.177332 
L 74.316325 270.598407 
L 74.543543 271.505522 
L 74.770762 271.395504 
L 75.338808 273.871121 
L 75.452417 273.102752 
L 75.679636 269.072104 
L 75.793245 269.119235 
L 76.020464 270.727012 
L 76.247682 271.647962 
L 76.474901 270.298725 
L 76.702119 271.428762 
L 76.929338 269.81468 
L 77.270165 272.859928 
L 77.383775 272.638247 
L 77.497384 272.858524 
L 77.724602 274.350266 
L 77.838212 273.915446 
L 78.06543 272.157155 
L 78.292649 273.409963 
L 78.519867 275.728897 
L 78.633477 275.611695 
L 78.860695 273.921889 
L 79.087914 274.372086 
L 79.201523 274.192791 
L 79.315132 273.675302 
L 79.65596 271.193964 
L 79.996788 273.33264 
L 80.110397 272.994552 
L 80.337615 271.633727 
L 80.451225 271.657129 
L 80.678443 274.481644 
L 80.905662 277.727059 
L 81.019271 277.736281 
L 81.473708 274.272822 
L 81.587317 274.440047 
L 81.700927 273.787196 
L 81.814536 273.828419 
L 81.928145 274.551636 
L 82.041754 274.4534 
L 82.268973 272.44288 
L 82.382582 272.721535 
L 82.496191 273.447915 
L 82.609801 273.19247 
L 82.837019 271.822962 
L 83.064238 270.807832 
L 83.177847 271.14009 
L 83.291456 271.96885 
L 83.518675 271.762748 
L 83.859502 274.140438 
L 84.086721 272.220011 
L 84.427549 271.487048 
L 84.654767 272.074252 
L 84.881986 273.195762 
L 85.109204 273.25191 
L 85.450032 272.155238 
L 85.563641 272.222682 
L 85.904469 271.498885 
L 86.131688 269.172951 
L 86.245297 269.273919 
L 86.358906 269.224782 
L 86.472515 269.650406 
L 86.813343 273.232181 
L 87.040562 270.576697 
L 87.154171 270.598342 
L 87.608608 273.06635 
L 87.835827 273.229933 
L 88.063045 272.643627 
L 88.290264 273.954976 
L 88.517482 273.869638 
L 88.744701 272.56093 
L 89.199138 267.75508 
L 89.312747 268.010682 
L 89.880793 271.873406 
L 90.221621 269.318659 
L 90.33523 269.587783 
L 90.44884 270.357612 
L 90.676058 273.433724 
L 90.903277 274.026695 
L 91.016886 274.841676 
L 91.130495 273.892488 
L 91.357714 271.146315 
L 91.471323 271.388141 
L 91.92576 274.123387 
L 92.039369 273.611586 
L 92.266588 270.601861 
L 92.380197 270.697463 
L 92.607415 269.885226 
L 92.721025 270.144456 
L 92.834634 270.81714 
L 93.061852 273.47215 
L 93.40268 270.425646 
L 93.51629 270.165847 
L 93.743508 269.253862 
L 94.197945 273.324315 
L 94.425164 272.533369 
L 94.652382 272.423161 
L 94.879601 274.099949 
L 95.447647 277.924997 
L 95.674865 275.991448 
L 95.902084 274.540108 
L 96.015693 275.190396 
L 96.129302 274.914744 
L 96.47013 271.712751 
L 96.58374 271.913892 
L 96.810958 273.599864 
L 96.924567 273.935658 
L 97.265395 272.696261 
L 97.379004 272.248215 
L 97.606223 272.749524 
L 97.719832 272.584628 
L 97.833441 272.723701 
L 97.947051 272.625417 
L 98.174269 271.66643 
L 98.401488 273.554346 
L 98.628706 273.180334 
L 98.855925 273.991183 
L 99.083143 272.773686 
L 99.196753 272.785171 
L 99.423971 272.173425 
L 99.53758 272.673192 
L 99.65119 272.600543 
L 99.878408 270.479981 
L 100.105627 272.762368 
L 100.332845 271.92175 
L 100.560064 272.808524 
L 100.787282 271.661392 
L 100.900891 271.807917 
L 101.014501 272.198954 
L 101.241719 269.811959 
L 101.355328 269.863035 
L 101.582547 272.496984 
L 101.696156 271.978444 
L 101.923375 270.653656 
L 102.377812 274.405287 
L 102.60503 276.756646 
L 102.832249 275.727325 
L 103.059467 273.072753 
L 103.400295 272.384481 
L 103.627514 270.577423 
L 103.741123 270.471823 
L 103.854732 270.757948 
L 104.081951 273.347724 
L 104.19556 272.83192 
L 104.309169 272.856635 
L 104.536388 273.178115 
L 104.763606 272.171094 
L 104.877215 272.184677 
L 105.104434 271.807373 
L 105.218043 272.009832 
L 105.331653 271.615777 
L 105.445262 270.704327 
L 105.558871 270.70906 
L 105.899699 272.914514 
L 106.013308 273.374687 
L 106.240527 271.503652 
L 106.354136 271.513566 
L 106.467745 271.355524 
L 106.581354 271.615151 
L 106.808573 274.832066 
L 106.922182 274.983903 
L 107.035791 274.754086 
L 107.26301 272.952625 
L 107.376619 273.068174 
L 107.717447 276.049723 
L 107.831056 275.949661 
L 108.058275 274.55164 
L 108.285493 275.079835 
L 108.399103 274.973686 
L 108.626321 273.818239 
L 108.73993 273.937025 
L 108.967149 271.738721 
L 109.080758 272.078566 
L 109.307977 273.482857 
L 109.535195 271.840263 
L 109.762414 272.885658 
L 109.876023 271.999751 
L 109.989632 272.080982 
L 110.103241 272.433262 
L 110.33046 271.48648 
L 110.557678 272.999785 
L 110.784897 273.536359 
L 110.898506 273.349039 
L 111.239334 271.751685 
L 111.466553 272.588405 
L 111.693771 275.095582 
L 111.92099 277.06571 
L 112.148208 273.797141 
L 112.375427 271.277771 
L 112.489036 270.68547 
L 112.602645 270.938469 
L 112.829864 272.631019 
L 113.284301 270.246832 
L 113.39791 269.654883 
L 113.511519 270.737386 
L 113.738738 274.777759 
L 113.852347 274.356336 
L 114.079565 270.458357 
L 114.193175 270.978918 
L 114.420393 272.966052 
L 114.98844 270.796322 
L 115.102049 270.978217 
L 115.329267 270.604122 
L 115.556486 271.71401 
L 115.783704 271.310161 
L 115.897314 270.992425 
L 116.124532 271.226151 
L 116.238141 271.378657 
L 116.351751 272.345804 
L 116.46536 272.347869 
L 116.578969 272.085052 
L 116.806188 272.792549 
L 116.919797 272.527475 
L 117.033406 272.69441 
L 117.147015 273.100637 
L 117.260625 272.637684 
L 117.374234 271.234712 
L 117.487843 271.301154 
L 117.715062 274.95549 
L 117.828671 274.553955 
L 118.169499 272.149539 
L 118.283108 272.365655 
L 118.396717 272.322242 
L 118.623936 271.106488 
L 118.851154 272.531102 
L 118.964764 272.406065 
L 119.078373 272.028688 
L 119.53281 268.56674 
L 119.987247 271.324259 
L 120.328075 272.360518 
L 120.555293 271.143132 
L 120.668903 271.629462 
L 120.896121 271.164239 
L 121.00973 272.056078 
L 121.12334 271.350775 
L 121.236949 269.539023 
L 121.350558 269.807724 
L 121.804995 274.558233 
L 122.032214 273.118875 
L 122.145823 273.246089 
L 122.486651 274.170545 
L 122.60026 274.110809 
L 122.827478 274.408016 
L 123.054697 273.975134 
L 123.395525 271.345629 
L 123.963571 269.682994 
L 124.19079 270.920728 
L 124.304399 270.849856 
L 124.531617 271.667966 
L 124.758836 271.228353 
L 125.213273 272.125392 
L 125.440491 272.985887 
L 125.554101 272.808637 
L 125.66771 272.424237 
L 126.008538 269.918535 
L 126.349365 273.547178 
L 126.576584 272.477405 
L 126.803803 272.341942 
L 126.917412 272.728547 
L 127.14463 272.660362 
L 127.371849 272.997623 
L 127.599067 274.401436 
L 127.712677 274.287137 
L 127.939895 273.573052 
L 128.053504 273.590372 
L 128.507941 270.542618 
L 128.621551 271.28319 
L 128.848769 273.944012 
L 128.962378 273.684274 
L 129.075988 273.923571 
L 129.303206 276.23281 
L 129.644034 273.889608 
L 129.871253 272.455864 
L 129.984862 272.22668 
L 130.098471 271.441607 
L 130.21208 271.48126 
L 130.439299 273.595127 
L 130.552908 273.713251 
L 130.780127 275.431611 
L 131.120954 272.930839 
L 131.234564 272.883613 
L 131.461782 274.508293 
L 131.575391 274.413452 
L 131.916219 271.163762 
L 132.029828 271.666614 
L 132.143438 271.633978 
L 132.370656 270.557751 
L 132.484266 270.919783 
L 132.711484 272.842937 
L 132.938703 272.221087 
L 133.39314 273.725587 
L 133.506749 273.555649 
L 133.733967 274.823306 
L 133.847577 274.462643 
L 134.188404 270.644749 
L 134.302014 270.914223 
L 134.415623 270.630576 
L 134.756451 270.831561 
L 134.983669 273.039536 
L 135.097278 272.493563 
L 135.210888 271.395463 
L 135.438106 272.456878 
L 135.778934 270.157486 
L 136.34698 275.124982 
L 136.687808 271.911305 
L 136.801417 272.003193 
L 137.028636 272.46038 
L 137.255854 273.829299 
L 137.369464 273.763105 
L 137.483073 274.02097 
L 137.710291 275.33897 
L 138.164728 273.351488 
L 138.278338 273.170334 
L 138.505556 273.658232 
L 138.846384 272.606079 
L 139.073603 272.984958 
L 139.300821 271.783233 
L 139.641649 272.830346 
L 139.868867 273.749399 
L 140.323304 269.930382 
L 140.664132 271.507024 
L 141.00496 269.024054 
L 141.345788 271.899709 
L 141.459397 271.678333 
L 141.686616 270.702065 
L 142.027443 273.667545 
L 142.141053 274.802887 
L 142.254662 274.478734 
L 142.59549 270.402208 
L 142.709099 270.90422 
L 143.049927 273.497937 
L 143.163536 272.701291 
L 143.277145 272.81793 
L 143.617973 275.276992 
L 144.186019 271.448991 
L 144.526847 273.728969 
L 144.640456 273.567495 
L 144.754066 273.179937 
L 144.867675 273.230999 
L 145.094893 274.372767 
L 145.66294 272.621726 
L 145.776549 272.667535 
L 145.890158 272.530736 
L 146.230986 270.218441 
L 146.344595 270.380075 
L 146.685423 273.194227 
L 146.799032 273.120937 
L 146.912641 272.643745 
L 147.13986 272.833368 
L 147.707906 269.348193 
L 147.821516 269.499312 
L 148.162343 273.786061 
L 148.389562 272.853621 
L 148.503171 272.944511 
L 148.73039 271.567569 
L 148.843999 272.065048 
L 148.957608 271.505456 
L 149.071217 271.798364 
L 149.184827 273.248771 
L 149.298436 272.700992 
L 149.525654 269.218705 
L 149.752873 270.089376 
L 149.866482 269.657055 
L 150.093701 268.057772 
L 150.20731 268.333859 
L 150.434528 270.335111 
L 150.548138 270.736121 
L 150.888966 272.976579 
L 151.68423 268.897878 
L 152.593104 274.948793 
L 152.706714 274.874541 
L 153.161151 271.763142 
L 153.388369 269.499128 
L 153.501978 269.478566 
L 153.729197 272.750624 
L 153.842806 272.504158 
L 153.956416 272.587072 
L 154.070025 272.46438 
L 154.183634 271.94821 
L 154.410853 272.809583 
L 154.75168 271.049595 
L 154.86529 270.87481 
L 155.092508 269.926314 
L 155.319727 271.238407 
L 155.433336 271.126807 
L 155.660554 269.226697 
L 155.887773 270.733883 
L 156.34221 266.684567 
L 156.910256 270.038637 
L 157.251084 267.109535 
L 157.478303 271.339059 
L 157.591912 271.023997 
L 157.81913 268.251696 
L 157.93274 268.916462 
L 158.159958 271.243981 
L 158.387177 269.431233 
L 158.614395 270.749924 
L 158.955223 273.740372 
L 159.068832 273.564405 
L 159.296051 272.225131 
L 159.40966 272.451399 
L 159.523269 273.328284 
L 159.636878 273.244512 
L 159.864097 271.89692 
L 160.204925 273.809245 
L 160.318534 273.772502 
L 160.545753 274.612767 
L 160.659362 274.563675 
L 160.88658 273.617544 
L 161.113799 275.384536 
L 161.568236 272.035135 
L 161.681845 271.794807 
L 162.022673 269.94895 
L 162.136282 270.337332 
L 162.363501 270.176624 
L 162.590719 272.913329 
L 162.931547 270.265652 
L 163.045156 269.57123 
L 163.158766 269.975344 
L 163.385984 271.56614 
L 163.726812 272.427228 
L 163.840421 273.310105 
L 164.181249 269.133162 
L 164.294858 269.519853 
L 164.408467 270.063507 
L 164.635686 268.849848 
L 164.976514 270.404096 
L 165.090123 271.389675 
L 165.317341 270.34505 
L 165.430951 269.606446 
L 165.658169 267.027609 
L 165.885388 267.289399 
L 165.998997 266.8694 
L 166.112606 267.157424 
L 166.567043 271.203492 
L 167.02148 268.868181 
L 167.248699 270.08686 
L 167.589527 269.565561 
L 167.703136 269.578683 
L 167.816745 269.365673 
L 168.043964 267.392064 
L 168.384791 270.555841 
L 168.498401 270.409654 
L 168.725619 271.291217 
L 168.839229 270.955073 
L 169.066447 268.788716 
L 169.520884 272.247846 
L 169.748103 271.795417 
L 169.975321 272.796384 
L 170.316149 270.035108 
L 170.429758 270.000216 
L 170.656977 266.232402 
L 170.770586 264.377802 
L 170.884195 264.354363 
L 171.111414 267.050019 
L 171.225023 266.769249 
L 171.338632 266.807549 
L 172.133897 272.004052 
L 172.588334 267.615475 
L 172.701943 267.365434 
L 172.929162 268.564039 
L 173.15638 267.939306 
L 173.497208 270.75952 
L 173.724427 268.324055 
L 173.951645 269.297393 
L 174.178864 268.046904 
L 174.292473 268.112828 
L 174.860519 271.772566 
L 174.974129 271.977298 
L 175.087738 270.966065 
L 175.314956 267.392391 
L 175.428566 267.548165 
L 175.542175 267.964567 
L 175.655784 267.926715 
L 175.769393 268.044178 
L 176.22383 269.977176 
L 176.33744 269.468374 
L 176.564658 267.513157 
L 176.905486 269.019121 
L 177.132704 270.882641 
L 177.359923 268.666728 
L 177.587141 270.346848 
L 177.927969 267.72191 
L 178.268797 268.512847 
L 178.496016 267.470665 
L 178.723234 267.286206 
L 178.950453 268.355315 
L 179.177671 270.666141 
L 179.632108 267.17086 
L 179.972936 263.750305 
L 180.086545 263.817766 
L 180.200154 263.373726 
L 180.313764 263.691198 
L 180.654591 266.885581 
L 180.88181 265.336173 
L 180.995419 265.455456 
L 181.109029 265.816032 
L 181.336247 268.345192 
L 181.449856 268.454349 
L 181.677075 266.886973 
L 181.790684 267.017732 
L 182.017903 267.754724 
L 182.131512 268.294212 
L 182.245121 269.477846 
L 182.35873 269.1697 
L 182.585949 267.430422 
L 182.699558 267.121909 
L 183.040386 264.280319 
L 183.267604 268.806669 
L 183.608432 263.998938 
L 183.722041 262.588774 
L 183.835651 262.990158 
L 184.062869 264.764758 
L 184.403697 267.618537 
L 184.744525 265.728603 
L 184.858134 265.9498 
L 184.971743 266.293276 
L 185.085353 266.180827 
L 185.312571 266.273414 
L 185.53979 265.057423 
L 185.880617 267.581965 
L 186.221445 265.887931 
L 186.448664 263.588808 
L 186.562273 263.643402 
L 187.01671 267.072402 
L 187.130319 267.023407 
L 187.357538 267.778856 
L 187.471147 267.622586 
L 187.698366 268.914339 
L 187.811975 268.525277 
L 188.152803 261.18666 
L 188.266412 261.40202 
L 188.49363 262.931515 
L 188.60724 262.082058 
L 188.720849 262.324541 
L 188.834458 263.37716 
L 188.948067 263.347069 
L 189.175286 262.225322 
L 189.402504 264.161553 
L 189.629723 263.582776 
L 189.970551 264.467798 
L 190.197769 264.232232 
L 190.424988 264.072807 
L 190.538597 264.248954 
L 190.879425 262.704251 
L 191.106643 259.859933 
L 191.220253 259.80208 
L 191.333862 259.938406 
L 191.447471 260.738552 
L 191.56108 260.554642 
L 191.67469 259.162669 
L 191.788299 259.221536 
L 192.356345 263.689597 
L 192.583564 265.598666 
L 192.697173 265.377595 
L 192.924391 262.268762 
L 193.038001 260.466241 
L 193.15161 260.681521 
L 193.265219 261.777519 
L 193.378829 261.695873 
L 193.606047 260.063214 
L 193.719656 259.321773 
L 194.060484 259.442738 
L 194.62853 260.686198 
L 194.74214 260.367734 
L 194.969358 258.226367 
L 195.082967 258.385649 
L 195.310186 257.691399 
L 195.537404 258.206726 
L 195.764623 256.598716 
L 195.878232 255.421845 
L 195.991841 255.939567 
L 196.21906 258.739881 
L 196.446279 255.620195 
L 196.559888 255.817848 
L 196.787106 257.422517 
L 197.241543 253.756656 
L 197.468762 254.994088 
L 197.69598 254.400563 
L 197.923199 255.397933 
L 198.150417 253.36576 
L 198.377636 252.091455 
L 198.491245 251.915721 
L 198.718464 253.667106 
L 198.945682 255.15689 
L 199.059291 255.032019 
L 199.172901 254.352466 
L 199.513729 248.904488 
L 199.627338 248.963795 
L 199.740947 249.172713 
L 199.968166 247.074204 
L 200.081775 247.109004 
L 200.422603 250.446122 
L 200.536212 250.384809 
L 200.649821 250.113267 
L 200.87704 250.904077 
L 200.990649 250.200651 
L 201.217867 248.462834 
L 201.558695 253.281293 
L 201.672304 251.914747 
L 201.785914 249.041937 
L 201.899523 249.009634 
L 202.126741 251.292365 
L 202.35396 249.349703 
L 202.808397 245.71513 
L 203.035616 247.098909 
L 203.149225 246.904738 
L 203.490053 242.542067 
L 203.94449 244.863903 
L 204.058099 244.940834 
L 204.171708 244.556735 
L 204.398927 243.515246 
L 204.739754 246.710746 
L 205.194192 242.738973 
L 205.42141 239.256326 
L 205.535019 239.12787 
L 205.762238 240.752535 
L 205.875847 240.604386 
L 206.103066 239.51198 
L 206.216675 239.845752 
L 206.557503 239.027373 
L 206.784721 239.368557 
L 207.01194 237.569158 
L 207.239158 235.455123 
L 207.466377 235.98254 
L 207.579986 235.879199 
L 207.693595 235.937444 
L 207.920814 235.447875 
L 208.261642 230.897733 
L 208.602469 232.869681 
L 209.056906 227.245995 
L 209.170516 227.349841 
L 209.397734 225.244955 
L 209.738562 221.858657 
L 209.852171 221.977459 
L 209.96578 221.897302 
L 210.874654 213.600673 
L 210.988264 213.07583 
L 211.215482 213.953531 
L 211.783529 207.44337 
L 212.124356 204.577754 
L 212.465184 200.2451 
L 212.919621 189.360062 
L 213.260449 186.64625 
L 213.828495 177.11741 
L 214.396542 168.870188 
L 216.441508 124.72471 
L 217.123164 103.149686 
L 217.350382 97.533986 
L 217.918429 78.410885 
L 218.145647 73.071509 
L 218.827303 50.98576 
L 220.190614 24.862374 
L 220.417832 23.82229 
L 220.645051 23.677423 
L 220.75866 23.546909 
L 220.872269 23.76977 
L 221.553925 36.378421 
L 222.34919 59.182251 
L 222.690017 72.826675 
L 223.371673 90.218238 
L 223.939719 112.492903 
L 224.280547 121.205238 
L 224.394156 122.668684 
L 224.734984 135.693063 
L 225.075812 146.89914 
L 225.757467 161.43254 
L 226.098295 169.129367 
L 227.234388 190.841423 
L 227.347997 191.632865 
L 228.029653 200.637307 
L 228.143262 200.848052 
L 228.256871 200.537843 
L 228.37048 201.608797 
L 228.711308 207.194481 
L 229.165745 211.155399 
L 229.620182 216.219274 
L 229.847401 217.335676 
L 230.756275 225.977718 
L 230.869884 226.049467 
L 231.210712 226.637636 
L 231.55154 228.689138 
L 231.665149 228.743162 
L 231.892367 231.556513 
L 232.005977 231.064258 
L 232.233195 228.284355 
L 232.460414 229.100175 
L 232.574023 228.548664 
L 233.255679 234.52825 
L 233.596506 236.860118 
L 233.937334 237.4572 
L 234.391771 242.353451 
L 234.50538 241.889101 
L 234.732599 240.682627 
L 234.959817 242.672826 
L 235.073427 242.163124 
L 235.414254 239.756252 
L 235.641473 240.6236 
L 235.982301 239.768772 
L 236.209519 241.963095 
L 236.323129 243.15768 
L 236.436738 242.731374 
L 236.550347 241.100466 
L 236.663956 241.685267 
L 236.891175 245.705884 
L 237.118393 247.359441 
L 237.232003 248.049027 
L 237.345612 247.631387 
L 237.57283 245.771326 
L 237.68644 246.288446 
L 237.800049 247.492301 
L 237.913658 247.478269 
L 238.254486 244.425827 
L 238.368095 244.573673 
L 238.595314 247.296973 
L 238.708923 246.731736 
L 238.936142 244.784843 
L 239.049751 244.907323 
L 239.16336 244.792019 
L 239.276969 245.096895 
L 239.504188 246.175067 
L 239.617797 246.04548 
L 239.845016 246.649735 
L 240.185843 245.528599 
L 240.299453 245.654434 
L 240.526671 247.327256 
L 240.64028 247.154903 
L 240.867499 246.153588 
L 240.981108 247.130879 
L 241.208327 251.488206 
L 241.321936 251.817662 
L 241.549155 249.804619 
L 241.662764 249.886563 
L 241.776373 250.253964 
L 241.889982 249.964286 
L 242.117201 247.513331 
L 242.23081 247.730301 
L 242.685247 252.919404 
L 242.798856 252.697966 
L 243.026075 251.291423 
L 243.139684 251.600526 
L 243.253293 251.236935 
L 243.594121 248.17428 
L 243.70773 248.702616 
L 244.048558 251.691476 
L 244.162167 251.949227 
L 244.389386 250.292695 
L 244.730214 247.996391 
L 245.071042 250.047017 
L 245.184651 250.225648 
L 245.29826 250.153652 
L 245.639088 247.542076 
L 245.752697 248.074344 
L 245.866306 247.782338 
L 245.979916 246.938408 
L 246.093525 247.0065 
L 246.320743 248.262515 
L 246.547962 245.882902 
L 246.77518 244.601564 
L 247.002399 244.751234 
L 247.116008 244.481009 
L 247.229617 244.527965 
L 247.456836 246.55769 
L 247.570445 246.198961 
L 247.911273 242.958286 
L 248.479319 248.053001 
L 248.933756 243.804466 
L 249.388193 240.633202 
L 249.615412 238.818761 
L 249.729021 239.0606 
L 249.95624 237.753041 
L 250.183458 235.998229 
L 250.410677 239.640556 
L 250.524286 238.918588 
L 250.751505 236.165267 
L 250.865114 235.348036 
L 251.092332 232.265793 
L 251.205942 232.452209 
L 251.319551 233.739663 
L 251.43316 233.366146 
L 251.660379 229.647812 
L 251.773988 229.690398 
L 252.114816 231.445995 
L 252.228425 231.042899 
L 252.682862 225.065921 
L 252.91008 224.071505 
L 253.250908 221.164632 
L 253.364517 221.759709 
L 253.478127 221.33479 
L 253.818955 217.481213 
L 253.932564 216.563912 
L 254.046173 216.653985 
L 254.159782 217.328092 
L 254.387001 214.767772 
L 254.955047 206.769181 
L 255.182266 203.263568 
L 255.523093 196.625205 
L 255.750312 196.549419 
L 255.97753 194.110277 
L 256.318358 185.973969 
L 256.545577 181.650086 
L 256.886405 178.251945 
L 257.340842 171.024534 
L 258.136106 159.782371 
L 258.704153 152.734042 
L 258.931371 149.139173 
L 259.04498 148.943507 
L 259.15859 149.037815 
L 259.499417 146.406465 
L 259.613027 146.836772 
L 259.726636 146.47491 
L 259.953855 143.123265 
L 260.067464 143.815407 
L 260.294682 146.295169 
L 260.521901 144.022328 
L 260.749119 147.027962 
L 261.089947 154.279516 
L 261.430775 160.212745 
L 261.544384 160.265774 
L 261.657993 161.245435 
L 261.885212 165.72277 
L 262.11243 167.231529 
L 262.566867 175.007854 
L 262.680477 174.54087 
L 262.794086 175.241387 
L 263.475742 187.816047 
L 263.930179 194.114566 
L 264.952662 207.321051 
L 265.066271 207.324007 
L 265.29349 211.169494 
L 265.520708 214.661056 
L 265.747927 215.656265 
L 265.975145 217.864452 
L 266.088755 217.658679 
L 266.202364 218.459607 
L 266.884019 227.756825 
L 267.111238 229.131793 
L 267.565675 232.58865 
L 267.679284 233.002619 
L 268.24733 231.900059 
L 268.36094 232.18854 
L 268.474549 233.285611 
L 268.815377 239.452059 
L 269.042595 239.971783 
L 269.383423 243.342188 
L 269.497032 243.536191 
L 269.724251 240.964351 
L 269.83786 241.321885 
L 270.178688 242.965573 
L 270.292297 243.4596 
L 270.633125 246.677261 
L 270.860343 245.843071 
L 270.973953 246.535151 
L 271.087562 246.440909 
L 271.201171 247.339858 
L 271.42839 249.400773 
L 271.655608 247.479438 
L 271.996436 249.209444 
L 272.110045 248.912411 
L 272.337264 247.474623 
L 272.564482 249.253345 
L 272.678092 248.947002 
L 272.791701 249.059922 
L 273.132529 251.598466 
L 273.359747 250.169514 
L 273.473356 250.145525 
L 273.700575 253.418091 
L 273.927793 257.023647 
L 274.041403 256.59448 
L 274.268621 254.633125 
L 274.49584 255.204836 
L 274.609449 255.382374 
L 274.950277 256.753462 
L 275.177495 256.336583 
L 275.404714 256.133978 
L 275.518323 256.391192 
L 275.631932 257.069647 
L 275.859151 256.534114 
L 276.086369 258.381389 
L 276.427197 255.382977 
L 276.768025 255.259666 
L 276.995243 258.546116 
L 277.108853 260.312707 
L 277.222462 260.076989 
L 277.44968 258.253579 
L 277.790508 260.476532 
L 278.131336 257.786096 
L 278.585773 261.735684 
L 278.699382 261.486372 
L 278.812992 261.554055 
L 278.926601 261.776467 
L 279.04021 261.654045 
L 279.267429 263.477484 
L 279.381038 263.079325 
L 279.721866 260.028181 
L 279.949084 260.728844 
L 280.062693 260.663087 
L 280.289912 260.420424 
L 280.403521 260.557615 
L 280.744349 262.634983 
L 281.085177 260.392542 
L 281.312395 261.172119 
L 281.539614 259.625819 
L 281.653223 260.003629 
L 282.10766 263.303791 
L 282.334879 261.499981 
L 282.902925 265.639766 
L 283.016534 265.291051 
L 283.130143 265.579936 
L 283.243753 266.810076 
L 283.357362 266.482811 
L 283.58458 264.371765 
L 283.811799 263.769742 
L 283.925408 263.243428 
L 284.266236 260.261545 
L 284.493455 260.974263 
L 284.607064 261.561146 
L 284.947892 264.596387 
L 285.061501 264.737872 
L 285.17511 265.217216 
L 285.288719 265.171652 
L 285.515938 263.591507 
L 285.629547 263.381322 
L 285.970375 264.368502 
L 286.083984 264.28287 
L 286.424812 262.593979 
L 286.538421 262.869157 
L 286.879249 264.555976 
L 287.106468 263.409865 
L 287.220077 264.004308 
L 287.447295 266.060935 
L 287.674514 264.149318 
L 287.901732 263.144496 
L 288.128951 262.08446 
L 288.24256 263.419858 
L 288.469779 268.35803 
L 288.583388 268.325675 
L 288.924216 265.862757 
L 289.151434 264.378898 
L 289.378653 263.842113 
L 289.492262 263.396435 
L 289.605871 263.708133 
L 289.946699 266.744452 
L 290.173918 266.351364 
L 290.287527 266.515847 
L 290.514745 267.550448 
L 290.628355 267.265755 
L 290.855573 265.302175 
L 291.082792 265.221935 
L 291.196401 265.985211 
L 291.423619 268.861795 
L 291.650838 265.24086 
L 291.991666 265.560386 
L 292.105275 265.077388 
L 292.218884 263.881964 
L 292.332493 263.867598 
L 292.90054 266.282619 
L 293.127758 263.680936 
L 293.354977 261.292403 
L 293.468586 261.226822 
L 293.582195 262.034069 
L 293.923023 265.963812 
L 294.150242 267.55071 
L 294.37746 266.732682 
L 294.718288 269.438797 
L 294.945506 269.442101 
L 295.059116 269.370158 
L 295.513553 265.18051 
L 295.740771 267.330228 
L 295.85438 267.164183 
L 295.96799 267.837365 
L 296.308818 270.631823 
L 296.536036 269.666462 
L 296.649645 269.372374 
L 296.876864 268.197902 
L 296.990473 268.211532 
L 297.44491 265.387719 
L 297.558519 265.50232 
L 297.672129 266.039346 
L 298.012956 270.96574 
L 298.467393 266.778335 
L 298.694612 268.934954 
L 299.149049 267.197218 
L 299.376268 264.86839 
L 299.603486 266.38281 
L 299.717095 265.406013 
L 299.830705 265.539107 
L 300.398751 269.344586 
L 300.51236 268.768124 
L 300.739579 269.514898 
L 300.966797 267.064795 
L 301.080406 267.330227 
L 301.194016 267.442387 
L 301.307625 266.680818 
L 301.534843 268.057707 
L 301.648453 267.747327 
L 301.762062 267.484738 
L 301.98928 268.621653 
L 302.10289 267.901189 
L 302.216499 267.938466 
L 302.330108 268.490003 
L 302.443718 268.409456 
L 302.670936 269.516533 
L 302.784545 268.833472 
L 302.898155 267.149604 
L 303.011764 267.229045 
L 303.238982 269.031187 
L 303.57981 266.288842 
L 304.147856 271.560433 
L 304.261466 271.897231 
L 304.488684 268.824941 
L 304.602293 269.040351 
L 304.715903 270.66723 
L 304.829512 270.619652 
L 304.943121 269.722221 
L 305.17034 270.105508 
L 305.624777 268.237647 
L 305.738386 267.680407 
L 306.079214 269.929064 
L 306.306432 269.564434 
L 306.760869 271.613901 
L 306.874479 271.409626 
L 307.101697 269.420941 
L 307.328916 270.826028 
L 307.442525 271.407273 
L 307.783353 268.862804 
L 308.010571 269.508774 
L 308.12418 269.464107 
L 308.351399 268.138881 
L 308.465008 268.440723 
L 308.805836 271.198327 
L 308.919445 272.673476 
L 309.033055 271.93906 
L 309.260273 268.777434 
L 309.487492 269.667104 
L 309.71471 272.102568 
L 310.396366 266.768125 
L 310.509975 266.923345 
L 310.737193 266.283569 
L 310.850803 266.494636 
L 311.078021 269.090383 
L 311.19163 268.863639 
L 311.532458 270.830749 
L 311.759677 269.735284 
L 312.100505 271.663039 
L 312.327723 268.848924 
L 312.441332 269.478487 
L 312.668551 271.444144 
L 312.78216 271.271385 
L 312.895769 271.433587 
L 313.463816 267.274606 
L 313.691034 268.616156 
L 313.804643 268.484617 
L 314.031862 270.193435 
L 314.145471 270.051318 
L 314.37269 267.420772 
L 314.486299 267.557854 
L 314.713518 269.121167 
L 314.827127 269.311812 
L 315.054345 270.257951 
L 315.167955 270.239626 
L 315.281564 270.022319 
L 315.395173 270.48657 
L 315.622392 271.713588 
L 315.963219 270.180307 
L 316.304047 267.338564 
L 316.417656 267.465946 
L 316.644875 268.756509 
L 316.758484 268.200969 
L 317.326531 273.834947 
L 317.667358 272.064858 
L 317.894577 272.879584 
L 318.121795 270.666038 
L 318.349014 269.941761 
L 318.462623 270.217565 
L 318.576232 270.002154 
L 318.689842 269.526 
L 319.144279 270.775401 
L 319.598716 268.898035 
L 319.712325 269.274025 
L 319.825934 269.116141 
L 320.053153 267.100494 
L 320.393981 269.226524 
L 320.50759 269.086691 
L 320.621199 269.229191 
L 320.734808 269.586296 
L 320.848418 269.340104 
L 320.962027 269.692604 
L 321.189245 272.113963 
L 321.416464 269.26984 
L 321.643682 268.029128 
L 321.98451 270.230958 
L 322.211729 269.252184 
L 322.666166 270.401332 
L 322.779775 270.331351 
L 322.893384 270.591855 
L 323.120603 270.211426 
L 323.234212 270.93668 
L 323.461431 273.628692 
L 323.688649 271.851144 
L 323.802258 271.906429 
L 323.915868 271.994228 
L 324.143086 271.527934 
L 324.370305 272.513309 
L 324.597523 270.909987 
L 324.711132 270.88648 
L 325.165569 268.430081 
L 325.392788 268.018534 
L 325.506397 268.665075 
L 325.847225 271.874884 
L 325.960834 271.359768 
L 326.188053 269.535876 
L 326.415271 270.414672 
L 326.756099 267.769275 
L 327.096927 269.118443 
L 327.324145 268.562796 
L 327.664973 266.055946 
L 327.778582 266.558734 
L 328.005801 268.154791 
L 328.11941 268.509068 
L 328.346629 269.959137 
L 328.460238 269.349329 
L 328.573847 269.556817 
L 328.687456 270.230237 
L 328.914675 268.664276 
L 329.141893 271.559944 
L 329.596331 272.808774 
L 329.937158 270.605302 
L 330.050768 270.426404 
L 330.277986 271.479653 
L 330.391595 271.34331 
L 330.618814 270.270379 
L 330.732423 269.447753 
L 330.846032 269.87497 
L 331.073251 270.864388 
L 331.18686 270.740723 
L 331.414079 269.061747 
L 331.641297 270.965184 
L 331.754906 270.720283 
L 331.982125 269.568909 
L 332.095734 269.884666 
L 332.322953 272.83284 
L 332.436562 272.860104 
L 332.550171 272.376728 
L 332.77739 270.079101 
L 333.004608 270.588718 
L 333.231827 270.462 
L 333.572655 269.160135 
L 333.913482 270.260012 
L 334.140701 272.042891 
L 334.25431 271.886735 
L 334.367919 272.516766 
L 334.481529 274.063719 
L 334.595138 273.901403 
L 334.935966 270.779107 
L 335.049575 271.245691 
L 335.276793 273.646689 
L 335.390403 273.193716 
L 335.617621 271.795714 
L 335.84484 271.920216 
L 336.185668 272.910252 
L 336.299277 272.521486 
L 336.526495 270.410528 
L 336.640105 270.321951 
L 336.753714 270.425667 
L 337.094542 268.757772 
L 337.662588 273.763516 
L 338.003416 270.581827 
L 338.230634 268.409936 
L 338.457853 269.217028 
L 338.571462 269.026293 
L 338.91229 266.356027 
L 339.025899 266.93863 
L 339.366727 271.983781 
L 339.593945 270.446006 
L 339.707555 271.325438 
L 339.934773 274.325208 
L 340.161992 272.396315 
L 340.38921 272.894583 
L 340.502819 272.590498 
L 340.616429 271.951519 
L 340.843647 269.716865 
L 340.957256 269.983562 
L 341.070866 269.833146 
L 341.298084 270.768157 
L 341.638912 268.824714 
L 341.866131 269.770377 
L 341.97974 269.477847 
L 342.093349 269.780003 
L 342.434177 273.625334 
L 342.547786 272.859235 
L 342.775005 269.776307 
L 342.888614 269.492801 
L 343.002223 269.562225 
L 343.343051 271.002826 
L 343.45666 270.291426 
L 343.683879 266.606523 
L 343.797488 266.50031 
L 344.138316 268.509808 
L 344.365534 267.410811 
L 344.819971 270.590657 
L 345.274408 268.585658 
L 345.615236 271.652273 
L 345.728845 271.812414 
L 345.956064 272.653011 
L 346.069673 272.690723 
L 346.296892 274.010271 
L 346.410501 273.42306 
L 346.637719 270.254306 
L 346.751329 269.671229 
L 346.864938 270.036883 
L 347.092156 271.734492 
L 347.432984 269.722711 
L 347.546594 269.979376 
L 347.773812 271.271173 
L 348.11464 268.516214 
L 348.228249 268.911573 
L 348.682686 272.446922 
L 348.796295 272.970709 
L 349.023514 271.484457 
L 349.137123 271.661523 
L 349.250732 271.571309 
L 349.477951 269.40595 
L 349.59156 269.718377 
L 349.705169 270.986276 
L 349.818779 270.911354 
L 349.932388 270.269792 
L 350.045997 270.526617 
L 350.273216 271.839162 
L 350.500434 269.971603 
L 350.727653 271.116575 
L 351.068481 270.038478 
L 351.295699 268.035143 
L 351.863745 272.161899 
L 351.977355 272.331646 
L 352.204573 270.846157 
L 352.318182 271.232521 
L 352.545401 273.233745 
L 352.886229 276.870615 
L 352.999838 275.939584 
L 353.340666 270.024251 
L 353.454275 269.687732 
L 353.567884 269.815374 
L 353.795103 270.825032 
L 354.022321 269.323459 
L 354.24954 270.417595 
L 354.476758 269.673643 
L 354.817586 270.534517 
L 355.044805 270.663011 
L 355.272023 271.269137 
L 355.612851 272.751609 
L 355.953679 269.584574 
L 356.067288 269.593908 
L 356.180897 269.964896 
L 356.521725 272.836142 
L 356.748944 271.913003 
L 357.203381 269.641409 
L 357.430599 271.537199 
L 357.544208 271.068849 
L 357.771427 269.780788 
L 357.998645 271.625665 
L 358.225864 273.600273 
L 358.339473 273.599489 
L 358.680301 270.268161 
L 359.021129 271.303786 
L 359.248347 272.623828 
L 359.589175 272.063466 
L 359.816394 271.203212 
L 360.043612 273.422845 
L 360.157221 273.077233 
L 360.38444 271.215609 
L 360.498049 271.366998 
L 360.838877 272.178587 
L 360.952486 272.074397 
L 361.293314 267.925347 
L 361.634142 270.923478 
L 361.747751 271.653266 
L 361.86136 271.462541 
L 362.088579 269.585566 
L 362.429406 273.915327 
L 362.543016 274.039457 
L 362.883844 273.250761 
L 363.111062 274.85502 
L 363.224671 274.387851 
L 363.45189 272.535961 
L 363.679108 273.295361 
L 363.792718 273.38245 
L 364.019936 272.783443 
L 364.133545 273.021247 
L 364.247155 273.582875 
L 364.474373 276.328346 
L 364.701592 276.018903 
L 365.269638 271.56338 
L 365.383247 272.350701 
L 365.610466 274.744107 
L 366.064903 272.035849 
L 366.51934 272.476112 
L 366.746558 273.163561 
L 367.087386 269.996564 
L 367.200995 269.858074 
L 367.541823 272.075872 
L 367.769042 270.5709 
L 367.99626 271.09747 
L 368.223479 270.007846 
L 368.450697 272.395989 
L 368.564306 272.07636 
L 369.132353 269.158454 
L 369.359571 270.437259 
L 369.58679 269.146225 
L 369.700399 269.286917 
L 369.927618 271.662687 
L 370.041227 271.609308 
L 370.268445 270.373763 
L 370.382055 269.650234 
L 370.609273 266.80303 
L 370.836492 266.971518 
L 371.06371 268.479975 
L 371.177319 268.598282 
L 371.518147 270.574259 
L 371.631756 270.653344 
L 371.858975 271.256105 
L 371.972584 271.34955 
L 372.199803 270.126535 
L 372.313412 270.595321 
L 372.427021 271.663026 
L 372.540631 271.400691 
L 372.767849 268.882854 
L 373.108677 270.249235 
L 373.222286 270.045672 
L 373.335895 270.408282 
L 373.563114 273.376325 
L 374.017551 269.288468 
L 374.471988 272.21884 
L 374.585597 272.50328 
L 374.812816 272.438953 
L 375.153644 269.454149 
L 375.494471 272.396081 
L 375.608081 271.99259 
L 375.72169 272.133955 
L 376.062518 269.970532 
L 376.176127 270.503992 
L 376.516955 274.827565 
L 376.630564 274.64414 
L 376.857782 271.943746 
L 376.971392 271.822579 
L 377.085001 271.932638 
L 377.312219 271.588429 
L 377.539438 272.543512 
L 377.766656 272.314714 
L 377.880266 272.350752 
L 377.993875 272.260231 
L 378.107484 272.881751 
L 378.221094 272.635773 
L 378.448312 269.842668 
L 378.561921 269.99434 
L 378.902749 268.115013 
L 379.016358 268.514036 
L 379.357186 272.309827 
L 379.584405 271.216423 
L 379.925232 273.656115 
L 380.038842 273.579491 
L 380.26606 272.555089 
L 380.720497 274.501583 
L 380.947716 275.510731 
L 381.288544 271.829604 
L 381.515762 273.560485 
L 381.742981 274.192695 
L 382.311027 271.165644 
L 382.424636 271.152627 
L 382.651855 270.726759 
L 382.765464 271.295868 
L 383.106292 275.770901 
L 383.560729 272.606212 
L 383.787947 270.771261 
L 384.015166 270.101565 
L 384.242384 270.717517 
L 384.469603 273.126698 
L 384.583212 272.815219 
L 384.810431 269.690766 
L 384.92404 270.1678 
L 385.151258 272.80536 
L 385.264868 272.522128 
L 385.378477 271.715554 
L 385.832914 274.5751 
L 385.946523 274.512658 
L 386.173742 270.703077 
L 386.40096 268.369571 
L 386.628179 270.312544 
L 386.741788 270.152716 
L 386.855397 270.339206 
L 387.082616 271.676255 
L 387.196225 271.474358 
L 387.423444 271.961494 
L 387.650662 271.479479 
L 387.764271 271.169593 
L 387.99149 271.845567 
L 388.332318 269.693122 
L 388.559536 270.992903 
L 388.786755 270.108525 
L 389.013973 270.367635 
L 389.241192 272.471237 
L 389.46841 274.377442 
L 389.695629 271.58193 
L 389.922847 272.119471 
L 390.036457 271.036887 
L 390.150066 271.02042 
L 390.377284 272.912657 
L 390.604503 272.873258 
L 390.831721 272.205146 
L 391.172549 273.893128 
L 391.399768 272.899483 
L 391.513377 273.382036 
L 391.740595 271.212225 
L 391.967814 269.227837 
L 392.422251 274.614207 
L 392.53586 274.527409 
L 392.876688 270.83685 
L 392.990297 270.762266 
L 393.331125 273.206491 
L 393.558344 274.533822 
L 393.671953 274.502906 
L 394.239999 270.146747 
L 394.353608 270.168995 
L 394.467218 270.923799 
L 394.694436 273.438809 
L 394.921655 269.03009 
L 395.148873 266.750331 
L 395.262482 267.104971 
L 395.376092 267.088963 
L 395.489701 266.87858 
L 395.716919 269.396662 
L 395.830529 270.474195 
L 396.171357 269.462912 
L 396.398575 270.07851 
L 396.625794 268.857888 
L 396.739403 269.427249 
L 396.966621 270.900554 
L 397.19384 270.43495 
L 397.307449 270.29305 
L 397.421058 270.588211 
L 397.648277 272.004272 
L 397.875495 272.24757 
L 397.989105 272.412606 
L 398.102714 272.812254 
L 398.216323 272.785487 
L 398.443542 272.160089 
L 398.67076 274.370334 
L 399.011588 274.073152 
L 399.466025 271.108126 
L 399.806853 271.36272 
L 400.034071 272.442041 
L 400.26129 271.539671 
L 400.488508 270.193657 
L 400.602118 270.242719 
L 400.942945 272.430738 
L 401.056555 272.113291 
L 401.397382 268.706801 
L 401.510992 268.726686 
L 401.624601 269.124362 
L 401.73821 269.995622 
L 401.851819 269.867632 
L 401.965429 269.415812 
L 402.192647 269.883737 
L 402.306257 270.06617 
L 402.647084 272.246546 
L 402.760694 271.854439 
L 402.987912 270.159795 
L 403.101521 270.0384 
L 403.32874 270.746739 
L 403.555958 270.034788 
L 403.669568 270.465636 
L 403.896786 270.273286 
L 404.124005 270.843169 
L 404.237614 270.772261 
L 404.464832 269.744562 
L 404.578442 269.899721 
L 404.919269 274.323447 
L 405.032879 274.131477 
L 405.373707 271.151383 
L 405.600925 269.783079 
L 405.828144 272.69728 
L 405.941753 272.612265 
L 406.39619 270.493091 
L 406.509799 270.535433 
L 406.850627 272.225562 
L 407.077845 271.519268 
L 407.191455 271.616118 
L 407.418673 271.066358 
L 407.532282 271.620257 
L 407.759501 270.955813 
L 407.986719 273.261203 
L 408.100329 273.165884 
L 408.441157 270.949566 
L 408.554766 271.279683 
L 408.781984 272.575835 
L 409.122812 270.379563 
L 409.236421 270.751638 
L 409.577249 274.713632 
L 409.690858 274.693685 
L 409.804468 274.20623 
L 409.918077 274.381121 
L 410.031686 274.349637 
L 410.258905 272.558628 
L 410.599732 273.470998 
L 410.826951 272.745205 
L 411.281388 272.786831 
L 411.622216 270.881046 
L 411.849434 272.967807 
L 412.190262 276.937936 
L 412.417481 275.505431 
L 412.53109 275.71578 
L 412.644699 276.372478 
L 412.758308 276.366254 
L 413.326355 273.812196 
L 413.439964 273.729461 
L 413.553573 274.031901 
L 413.780792 276.793471 
L 413.894401 276.428686 
L 414.235229 273.277121 
L 414.576057 277.697772 
L 414.916884 271.328469 
L 415.030494 271.766343 
L 415.257712 272.845136 
L 415.371321 272.348172 
L 415.59854 270.439451 
L 415.939368 271.491897 
L 416.166586 271.278384 
L 416.280195 271.497062 
L 416.393805 271.345469 
L 416.507414 271.510472 
L 416.621023 271.876064 
L 416.734632 271.607131 
L 416.848242 271.789471 
L 417.07546 273.497922 
L 417.189069 273.044846 
L 417.416288 269.569401 
L 417.529897 269.423083 
L 417.870725 272.417923 
L 418.211553 271.543423 
L 418.325162 271.804504 
L 418.66599 269.459912 
L 418.779599 269.507776 
L 419.006818 270.167958 
L 419.234036 268.66477 
L 419.688473 270.681729 
L 419.802082 269.887393 
L 419.915692 270.034637 
L 420.14291 270.740157 
L 420.483738 267.987365 
L 420.824566 271.156083 
L 420.938175 270.959963 
L 421.051784 271.093727 
L 421.165394 271.505689 
L 421.392612 270.01987 
L 421.506221 269.333988 
L 421.73344 270.729449 
L 421.847049 270.37979 
L 421.960658 269.805078 
L 422.074268 270.295278 
L 422.528705 274.049452 
L 422.755923 273.027156 
L 422.869532 273.07313 
L 423.096751 272.628578 
L 423.32397 273.873362 
L 423.551188 272.835294 
L 423.892016 271.569244 
L 424.119234 270.23489 
L 424.346453 271.113054 
L 424.573671 271.247118 
L 424.687281 270.978268 
L 425.028108 273.79603 
L 425.141718 274.929824 
L 425.255327 274.228656 
L 425.482545 272.255231 
L 425.596155 272.440919 
L 425.709764 272.908337 
L 425.936982 274.760162 
L 426.27781 271.638972 
L 426.39142 271.483563 
L 426.618638 272.673086 
L 426.732247 272.665794 
L 426.959466 271.558216 
L 427.073075 271.967074 
L 427.186684 271.753636 
L 427.300294 271.041368 
L 427.413903 271.325815 
L 427.754731 273.339911 
L 427.981949 272.677656 
L 428.095558 273.070366 
L 428.209168 272.981991 
L 428.436386 273.300581 
L 428.663605 272.216787 
L 428.777214 271.701304 
L 428.890823 270.424176 
L 429.004432 270.676064 
L 429.231651 272.2636 
L 429.45887 271.556115 
L 429.572479 272.223399 
L 429.686088 271.77333 
L 429.799697 270.048566 
L 429.913307 270.026249 
L 430.140525 271.349134 
L 430.254134 271.289026 
L 430.367744 271.611705 
L 430.594962 273.81416 
L 430.708571 273.658591 
L 430.93579 272.862714 
L 431.163008 273.491782 
L 431.276618 273.25175 
L 431.390227 273.345283 
L 431.617445 274.911803 
L 431.731055 274.922301 
L 431.958273 272.970109 
L 432.185492 269.39693 
L 432.299101 269.504494 
L 432.639929 273.715826 
L 432.753538 273.425966 
L 432.980757 270.913297 
L 433.207975 270.645213 
L 433.321584 270.873125 
L 433.548803 273.189854 
L 433.776021 272.789722 
L 434.230458 277.103109 
L 434.344068 276.613898 
L 434.684895 269.97465 
L 434.798505 270.114469 
L 434.912114 270.456786 
L 435.252942 272.464913 
L 435.366551 272.695228 
L 435.59377 271.191029 
L 435.707379 271.271938 
L 436.161816 274.237193 
L 436.275425 274.265125 
L 436.389034 273.841071 
L 436.616253 274.410005 
L 436.729862 273.91169 
L 436.843471 273.917119 
L 437.07069 274.588645 
L 437.638736 270.625009 
L 437.979564 272.376747 
L 438.434001 274.199119 
L 438.66122 274.742213 
L 438.774829 274.213555 
L 439.229266 269.88911 
L 439.342875 270.023472 
L 439.683703 271.68477 
L 439.797312 272.000602 
L 440.024531 270.914972 
L 440.13814 271.379225 
L 440.365358 272.628987 
L 440.478968 273.05181 
L 440.592577 272.97107 
L 440.819795 271.889386 
L 441.047014 273.873901 
L 441.387842 272.36532 
L 441.501451 272.54796 
L 441.61506 272.187635 
L 441.842279 271.32897 
L 442.183107 273.338984 
L 442.296716 273.211308 
L 442.523934 274.42706 
L 442.751153 273.445903 
L 442.978371 271.863352 
L 443.20559 273.369 
L 443.546418 271.134695 
L 443.660027 271.933603 
L 444.000855 275.397179 
L 444.228073 273.775191 
L 444.568901 270.070704 
L 444.68251 270.409877 
L 444.909729 272.442938 
L 445.136947 272.926191 
L 445.250557 272.670722 
L 445.364166 273.158291 
L 445.477775 273.113002 
L 445.818603 269.683806 
L 446.159431 270.882818 
L 446.27304 270.562507 
L 446.500258 269.240065 
L 446.613868 269.260195 
L 446.841086 268.892909 
L 447.181914 273.645231 
L 447.295523 273.539692 
L 447.636351 271.887151 
L 447.74996 272.463588 
L 447.977179 275.891205 
L 448.318007 274.382376 
L 448.658834 270.056212 
L 448.886053 273.782795 
L 449.113271 274.203298 
L 449.226881 274.514727 
L 449.34049 274.354259 
L 449.567708 272.264838 
L 449.908536 272.952831 
L 450.135755 272.565643 
L 450.476582 274.694315 
L 450.81741 272.623906 
L 450.93102 273.188754 
L 451.044629 272.936277 
L 451.499066 265.47324 
L 452.067112 272.91194 
L 452.180721 272.958202 
L 452.40794 272.241611 
L 452.521549 272.922678 
L 452.975986 271.638549 
L 453.203205 269.816267 
L 453.316814 269.60492 
L 453.430423 269.935518 
L 453.771251 272.440106 
L 453.88486 272.21066 
L 454.339297 270.258064 
L 454.452907 270.074392 
L 454.566516 270.775078 
L 454.793734 273.139056 
L 455.020953 274.468417 
L 455.248171 273.706254 
L 456.043436 268.074849 
L 456.384264 270.846163 
L 456.497873 270.917593 
L 456.611483 270.596684 
L 456.725092 270.846632 
L 456.95231 272.879311 
L 457.06592 272.9771 
L 457.406747 269.371341 
L 457.861184 274.081589 
L 458.202012 272.700982 
L 458.54284 269.892643 
L 458.770058 269.564501 
L 458.997277 270.210286 
L 459.110886 270.137544 
L 459.338105 269.535842 
L 459.451714 270.086667 
L 459.678933 272.461067 
L 459.792542 272.002716 
L 460.13337 269.430957 
L 460.474197 272.712389 
L 460.701416 271.448139 
L 460.815025 271.743756 
L 461.155853 273.618447 
L 461.269462 273.938619 
L 461.496681 273.196148 
L 461.723899 272.294553 
L 461.8 272.460766 
L 461.8 272.460766 
" clip-path="url(#p2fa0341064)" style="fill: none; stroke: #ff00ff; stroke-width: 1.5; stroke-linecap: square"/>
   </g>
   <g id="patch_3">
    <path d="M 24.57 291.232 
L 450 291.232 
" style="fill: none; stroke: #000000; stroke-width: 0.8; stroke-linejoin: miter; stroke-linecap: square"/>
   </g>
  </g>
 </g>
 <defs>
  <clipPath id="p2fa0341064">
   <rect x="24.57" y="10.8" width="425.43" height="280.432"/>
  </clipPath>
 </defs>
</svg>
